Cher Lloyd - Swagger Jagger- 2011 (UJ.rip)
------------------------------------------------------
Format                           : AVI
Format/Info                      : Audio Video Interleave
File size                        : 52.1 MiB
Duration                         : 3mn 25s
Overall bit rate                 : 2 124 Kbps
Writing application              : Lavf52.39.1

Video
ID                               : 0
Format                           : MPEG-4 Visual
Format profile                   : Advanced Simple@L1
Format settings, BVOP            : 2
Format settings, QPel            : No
Format settings, GMC             : No warppoints
Format settings, Matrix          : Default (H.263)
Codec ID                         : divx
Codec ID/Info                    : Mainly used by Google
Codec ID/Hint                    : DivX
Duration                         : 3mn 25s
Bit rate                         : 2 047 Kbps
Width                            : 720 pixels
Height                           : 480 pixels
Display aspect ratio             : 3:2
Frame rate                       : 25.000 fps
Standard                         : NTSC
Color space                      : YUV
Chroma subsampling               : 4:2:0
Bit depth                        : 8 bits
Scan type                        : Progressive
Compression mode                 : Lossy
Bits/(Pixel*Frame)               : 0.237
Stream size                      : 50.2 MiB (96%)
Writing library                  : Lavc52.37.0

Audio
ID                               : 1
Format                           : MPEG Audio
Format version                   : Version 1
Format profile                   : Layer 3
Mode                             : Joint stereo
Mode extension                   : MS Stereo
Codec ID                         : 55
Codec ID/Hint                    : MP3
Duration                         : 3mn 25s
Bit rate mode                    : Constant
Bit rate                         : 64.0 Kbps
Channel(s)                       : 2 channels
Sampling rate                    : 44.1 KHz
Compression mode                 : Lossy
Stream size                      : 1.57 MiB (3%)
Alignment                        : Aligned on interleaves
Interleave, duration             : 26 ms (0.65 video frame)

-------------------------------------------------------------
 
http://thepiratebay.org/user/utpaljoshi123